<svg xmlns="http://www.w3.org/2000/svg" width="42" height="42" viewBox="0 0 42 42"><path fill="#c7c7c7" d="M40.78 15.7A20.35 20.35 0 0 0 21.08.52a20.58 20.58 0 0 0-17.8 10.23A20.35 20.35 0 0 0 1.24 26.3 20.34 20.34 0 0 0 12.8 39.77h-.32a.85.85 0 1 0 0 1.71h17.07a.85.85 0 0 0 0-1.7h-.38a20.36 20.36 0 0 0 11.6-24.07zm-3.5 14.7a18.87 18.87 0 0 1-16.31 9.37h-.02c-3.27 0-6.5-.87-9.32-2.5a18.81 18.81 0 0 1-6.88-25.66A18.87 18.87 0 0 1 30.4 4.73a18.81 18.81 0 0 1 6.88 25.66zm-20.24 5.45A15.41 15.41 0 0 1 6.17 24.98a.85.85 0 1 0-1.65.44A17.12 17.12 0 0 0 16.6 37.5a.85.85 0 0 0 1.04-.6.85.85 0 0 0-.6-1.05zm8.4-31.35a.85.85 0 0 0-.45 1.65 15.41 15.41 0 0 1 10.87 10.87.85.85 0 1 0 1.64-.44A17.12 17.12 0 0 0 25.43 4.5zM20.5 36.36l-.63-.03a.85.85 0 0 0-.13 1.7l.7.04h.04a.85.85 0 0 0 .02-1.7zm1.02-30.72c.22 0 .43.02.64.03h.07a.85.85 0 0 0 .06-1.7l-.7-.04a.85.85 0 1 0-.07 1.7zm6.97 7.15c-.75 0-1.44.29-1.97.81l-8.9 8.91-2.11-2.11a2.76 2.76 0 0 0-3.93 0 2.76 2.76 0 0 0-.8 1.96c0 .74.28 1.44.8 1.96l4.08 4.08.04.04.02.02.03.03.02.01.04.04h.01l.04.04.01.01.04.03.02.02.04.03.02.01.04.03.01.01.04.03h.02l.04.03.02.02.04.02.02.01.04.03h.02l.04.03h.02l.04.03h.02l.04.03h.02l.04.03h.02l.05.02.01.01.05.02h.02l.04.02h.02l.05.02h.02l.04.02h.02l.05.02h.01l.05.02h.02l.05.01h.01l.05.02h.05l.04.01.05.01H17.28l.02.01H17.36l.05.01h.15l.05.01h.22l.04-.01h.07l.02-.01h.05l.01-.01h.05l.04-.01h.03l.02-.01.05-.01h.01l.05-.02h.02l.04-.01h.02l.05-.02h.02l.04-.02h.02l.05-.02h.02l.04-.03h.02l.04-.02h.03l.04-.03h.01l.04-.02.03-.01.04-.02.02-.01.04-.02.02-.01.04-.03h.02l.04-.03.02-.01.04-.02.02-.02.04-.02.01-.01.04-.03.02-.01.04-.03.02-.01.04-.03.02-.02.03-.03h.02l.03-.04a.8.8 0 0 0 .04-.03l.02-.02h.01l.04-.04.02-.02.03-.03.02-.02 10.86-10.86c.52-.53.8-1.22.8-1.97a2.76 2.76 0 0 0-2.76-2.77zm.75 3.53L18.37 27.2l-.06.05-.15.1-.16.08-.2.06-.18.01h-.03l-.18-.02-.17-.05-.19-.09-.15-.11-4.11-4.12c-.2-.2-.31-.46-.31-.75a1.06 1.06 0 0 1 1.06-1.07c.3 0 .56.11.76.31l2.72 2.72a.85.85 0 0 0 1.2 0l9.51-9.51c.2-.2.47-.31.76-.31a1.06 1.06 0 0 1 1.06 1.06c0 .3-.11.56-.31.76z"/></svg>