<svg xmlns="http://www.w3.org/2000/svg" width="42" height="35" viewBox="0 0 42 35"><path fill="#00c7d3" d="M2.85.42h3.4c1.14 0 2.1.74 2.44 1.76 1.5.23 1.96 1.18 2.19 2.02l.81 3.05h28.67a.85.85 0 0 1 .82 1.08l-.91 3.41a.85.85 0 0 1-.83.64h-.71l-2.12 7.9v.02l-.02.04-.01.04-.01.03a.82.82 0 0 1-.08.14 1.16 1.16 0 0 1-.1.12l-.02.01a.63.63 0 0 1-.04.04l-.02.01a1 1 0 0 1-.15.1l-.04.02-.03.01a.78.78 0 0 1-.08.02l-.05.02h-.02l-.09.01-20.07 1.63.48 1.8h18.16a.85.85 0 0 1 0 1.7h-2.36l.47 1.77a3.42 3.42 0 0 1-.67 6.77H27.6a.85.85 0 0 1 0-1.7h1.31a3.4 3.4 0 0 1 1.89-4.96l-.5-1.88H19.72l-.5 1.88a3.42 3.42 0 0 1-1.07 6.66H9.64a.85.85 0 0 1 0-1.7h5.57a3.4 3.4 0 0 1 2.28-5.07l.48-1.77H15.5l-.06-.02h-.03l-.05-.01-.03-.01-.04-.02-.03-.01a.9.9 0 0 1-.06-.03l-.03-.02-.04-.02-.03-.02-.03-.03c-.01 0-.02 0-.03-.02l-.03-.03-.02-.02-.04-.04-.01-.01a.9.9 0 0 1-.05-.07v-.01l-.04-.05-.01-.03-.02-.04-.02-.04v-.03a.57.57 0 0 1-.02-.04v-.01l-.92-3.4V22l-2.57-9.62h-.72a.85.85 0 0 1-.82-.64l-.92-3.41a.86.86 0 0 1 .83-1.08h.26l-.7-2.6c-.1-.38-.17-.63-.59-.75a2.56 2.56 0 0 1-2.38 1.64H2.85a2.56 2.56 0 0 1 0-5.12zm27.3 30.74c0 .94.77 1.7 1.7 1.71h.01a1.7 1.7 0 0 0 0-3.41c-.94 0-1.7.76-1.7 1.7zm-13.7 0c0 .94.77 1.7 1.71 1.71a1.7 1.7 0 0 0 0-3.41c-.94 0-1.7.76-1.7 1.7zm-2.93-17.08h9.58a.85.85 0 0 1 0 1.71h-9.12l.45 1.71h4.46a.85.85 0 0 1 0 1.7h-4l.44 1.66 19.8-1.6 1.83-6.88h-23.9zm-2.28-3.41h27.55l.46-1.71H10.78zm-8.4-6.83h3.42a.85.85 0 0 0 0-1.71H2.85a.85.85 0 0 0 0 1.7zm23.58 11.95h-.51a.85.85 0 0 1 0-1.7h.51a.85.85 0 0 1 0 1.7z"/></svg>