<svg xmlns="http://www.w3.org/2000/svg" width="44" height="607" viewBox="0 0 44 607"><path fill="#bee9f2" d="M36.52 583.09H17.77v-1.42h-9.5v20.23H6v-20.23H2.2v24.69h15.57v-17.7h22.79v-1.49a4.07 4.07 0 0 0-4.04-4.08zm-6.7-11.2H8.86a6.7 6.7 0 0 0-6.66 6.72v.76H6v-2.04h2.28v2.04h9.5v-1.84h12.04a2.82 2.82 0 0 0 0-5.64zM39 594v-3h-7v3zM22.67 484.45v-10.43h-2.5v10.43a14.95 14.95 0 0 0-13.63 13.63H36.3a14.95 14.95 0 0 0-13.63-13.63zm6.94 10.08a9.46 9.46 0 0 0-7.4-4.67l.22-2.5a12.02 12.02 0 0 1 9.34 5.9zm-8.19 10.51c2.72 0 5-1.91 5.57-4.46H15.85a5.72 5.72 0 0 0 5.57 4.46zM23 516v-9h-3v9zm-12.64-3.84l6.43-6.43-1.77-1.77-6.43 6.43zm22.12 0l1.77-1.77-6.43-6.43-1.77 1.77zm-3.14-123.39v-1.04H4.4v3.73h11.84v2.26H3.68a17.44 17.44 0 0 0-1.48 7.03v13.8h9.26v-7.04h3.75l-.57-5.44h7.12c3.8 0 6.94-2.77 7.5-6.38h2.13v-6.92zm-7.96 11.03H18.5v-2.26h2.88zm0-3.77H18.5v-2.26h2.88zm0-3.78H18.5V390h2.88zm15.9-1.15a3.34 3.34 0 0 0-3.2-2.33h-.41v6.92h.41c1.5 0 2.78-.98 3.2-2.33h3.28v-2.26zM4.12 309.05h36.44l-3.9-23.02H8.02zM41 315v-4H4v4zm0 6v-4H4v4zM27 211v-6h-9v6zm-24.05 4.01l-.75 1.96h5.75v-1.92l.33-.1c0-.01.03-1.11.84-1.93.6-.62 1.6-.97 2.9-1.09l-.23-6.47c-2.84.16-4.88 2.26-6.5 3.91a8.3 8.3 0 0 0-2.34 5.64zm-.75 19.23h5.53l.22-11.51H2.2zm34.73-32.34c0 3.7-2.76 4.52-4.04 4.7v4.62l-.23.66h.14c3.8-.2 9.46-3.01 9.46-9.98l.22-.28h-5.76zm-4.04 4.7v-1.14l-.32 1.17c.1 0 .2-.02.32-.04zm3.83-10.73h5.76l-.22-13.43h-5.54zM10 221v-2H0v2zm34-21v-2h-9v2zm-28 13v-9h-2v9zm15 0v-9h-2v9zm-8-84v-6.04a15.2 15.2 0 0 0 4.77-.98l3.8 6.59 1.67-.96-3.71-6.43c4.3-2.32 7.2-6.66 7.2-11.63H7.94c0 4.97 2.9 9.3 7.2 11.63l-3.71 6.43 1.66.96 3.8-6.6c1.29.5 2.66.82 4.1.94V129zM7.95 102.83h28.77a14.4 14.4 0 0 0-28.77 0zM37 108v-2H8v2zM36.62.2a3.92 3.92 0 0 0-3.94 3.9v1.19H30.4V4.1c0-2.16-1.77-3.9-3.94-3.9a3.92 3.92 0 0 0-3.94 3.9v1.19h-2.28V4.1c0-2.16-1.77-3.9-3.94-3.9a3.92 3.92 0 0 0-3.94 3.9v1.19h-2.28V4.1C10.08 1.94 8.3.2 6.14.2A3.92 3.92 0 0 0 2.2 4.1v24.78a3.92 3.92 0 0 0 3.94 3.91 3.93 3.93 0 0 0 3.94-3.91V27.7h2.28v1.18a3.93 3.93 0 0 0 3.94 3.91 3.93 3.93 0 0 0 3.94-3.91V27.7h2.28v1.18a3.93 3.93 0 0 0 3.94 3.91 3.93 3.93 0 0 0 3.94-3.91V27.7h2.28v1.18a3.92 3.92 0 0 0 3.94 3.91 3.93 3.93 0 0 0 3.94-3.91V4.1c0-2.16-1.76-3.9-3.94-3.9zM12.36 21.24h-2.28v-9.5h2.28zm10.16 0h-2.28v-9.5h2.28zm10.16 0H30.4v-9.5h2.28z"/></svg>