<svg xmlns="http://www.w3.org/2000/svg" width="19" height="21" viewBox="0 0 19 21"><defs><clipPath id="a"><path fill="#fff" d="M953.64 23.36c.65 0 1.25-.39 1.5-.98a6.91 6.91 0 0 1 10.54-2.76l-.9.14a.7.7 0 1 0-.18 1.33l5 2.2a.7.7 0 0 0 1-.63l.02-5.41a.7.7 0 0 0-.5-.67.72.72 0 0 0-.8.28l-.7 1.02A10.22 10.22 0 0 0 961.5 15c-4.2 0-7.83 2.53-9.37 6.12-.21.5-.16 1.07.14 1.52.3.45.82.72 1.37.72zm17.09 4a1.65 1.65 0 0 0-2.87.26 6.91 6.91 0 0 1-10.54 2.76l.9-.14a.7.7 0 1 0 .18-1.33l-5-2.2a.72.72 0 0 0-.67.04.7.7 0 0 0-.32.58l-.03 5.42c0 .3.2.58.5.67.3.1.63-.02.8-.28l.7-1.02A10.22 10.22 0 0 0 961.5 35c4.2 0 7.83-2.53 9.37-6.12a1.6 1.6 0 0 0-.14-1.52z"/></clipPath></defs><path fill="#c7c7c7" d="M1.64 9.36c.65 0 1.24-.39 1.5-.98a6.91 6.91 0 0 1 10.54-2.76l-.9.14a.7.7 0 1 0-.18 1.33l5 2.2a.7.7 0 0 0 1-.63l.02-5.41a.7.7 0 0 0-.5-.67.72.72 0 0 0-.8.28l-.7 1.02A10.22 10.22 0 0 0 9.5 1C5.3 1 1.67 3.53.13 7.12c-.21.5-.16 1.07.14 1.52.3.45.82.72 1.37.72zm17.09 4a1.65 1.65 0 0 0-2.87.26 6.91 6.91 0 0 1-10.54 2.76l.9-.14a.7.7 0 1 0 .18-1.33l-5-2.2a.72.72 0 0 0-.67.04.7.7 0 0 0-.32.58l-.03 5.42c0 .3.2.58.5.67.3.1.63-.02.8-.28l.7-1.02A10.22 10.22 0 0 0 9.5 21c4.2 0 7.83-2.53 9.37-6.12a1.6 1.6 0 0 0-.14-1.52z"/><path fill="none" stroke="#adb0b2" stroke-linecap="round" stroke-linejoin="round" stroke-miterlimit="50" stroke-width="2" d="M953.64 23.36c.65 0 1.25-.39 1.5-.98a6.91 6.91 0 0 1 10.54-2.76l-.9.14a.7.7 0 1 0-.18 1.33l5 2.2a.7.7 0 0 0 1-.63l.02-5.41a.7.7 0 0 0-.5-.67.72.72 0 0 0-.8.28l-.7 1.02A10.22 10.22 0 0 0 961.5 15c-4.2 0-7.83 2.53-9.37 6.12-.21.5-.16 1.07.14 1.52.3.45.82.72 1.37.72zm17.09 4a1.65 1.65 0 0 0-2.87.26 6.91 6.91 0 0 1-10.54 2.76l.9-.14a.7.7 0 1 0 .18-1.33l-5-2.2a.72.72 0 0 0-.67.04.7.7 0 0 0-.32.58l-.03 5.42c0 .3.2.58.5.67.3.1.63-.02.8-.28l.7-1.02A10.22 10.22 0 0 0 961.5 35c4.2 0 7.83-2.53 9.37-6.12a1.6 1.6 0 0 0-.14-1.52z" clip-path="url(&quot;#a&quot;)" transform="translate(-952 -14)"/></svg>