<svg xmlns="http://www.w3.org/2000/svg" width="24" height="24" viewBox="0 0 24 24"><defs><linearGradient id="a" x1="480" x2="458" y1="196" y2="174" gradientUnits="userSpaceOnUse"><stop offset="0" stop-color="#ff4e00"/><stop offset="1" stop-color="#f89d2a"/></linearGradient></defs><path fill="#f0ff00" d="M9.02 9.21c.52 0 .94.41.94.92 0 .5-.42.92-.94.92a.93.93 0 0 1-.94-.92c0-.5.42-.92.94-.92zm5.96 3.73c.52 0 .94.42.94.92 0 .51-.42.92-.94.92a.93.93 0 0 1-.94-.92c0-.5.42-.92.94-.92zm7.27 2.37l-.5.28c-.55.3-.84.9-.73 1.5l.1.56c.17.85-.47 1.64-1.35 1.7l-.57.02c-.63.03-1.16.46-1.33 1.05l-.15.55a1.47 1.47 0 0 1-1.97.95l-.53-.22a1.48 1.48 0 0 0-1.66.38l-.38.43c-.57.65-1.6.65-2.19.01l-.38-.41a1.48 1.48 0 0 0-1.67-.37l-.53.23a1.47 1.47 0 0 1-1.98-.92l-.16-.54c-.17-.6-.72-1-1.34-1.03l-.58-.03a1.44 1.44 0 0 1-1.38-1.66l.1-.56c.1-.6-.2-1.21-.75-1.5l-.5-.27a1.42 1.42 0 0 1-.51-2.09l.33-.46c.36-.5.35-1.17-.02-1.67l-.34-.45c-.52-.7-.3-1.68.47-2.1l.5-.28c.55-.3.85-.9.73-1.5l-.1-.56a1.44 1.44 0 0 1 1.35-1.7l.57-.02a1.45 1.45 0 0 0 1.33-1.05l.15-.55a1.47 1.47 0 0 1 1.97-.94l.53.21c.58.24 1.25.08 1.66-.38l.38-.43c.58-.65 1.6-.65 2.19-.01l.38.42c.42.46 1.1.6 1.67.36l.53-.23c.8-.34 1.74.1 1.98.92l.16.54c.18.6.72 1 1.34 1.03l.58.03c.88.03 1.53.82 1.38 1.66l-.1.56c-.1.6.2 1.21.75 1.5l.5.27c.79.4 1.02 1.38.52 2.09l-.34.46c-.36.5-.35 1.17.02 1.67l.34.46c.52.7.3 1.68-.47 2.1zM9 12.35c1.25 0 2.26-1 2.26-2.22a2.24 2.24 0 0 0-2.26-2.22c-1.25 0-2.26 1-2.26 2.22A2.24 2.24 0 0 0 9 12.35zm6.38-3.5a.53.53 0 0 0-.08-.77.56.56 0 0 0-.77.07L8.6 15.16c-.2.23-.16.58.07.76.24.2.59.16.78-.07zm1.85 5.01a2.24 2.24 0 0 0-2.26-2.21c-1.25 0-2.27.99-2.27 2.21a2.24 2.24 0 0 0 2.27 2.22c1.25 0 2.26-.99 2.26-2.22z"/><path fill="url(#a)" d="M466.02 182.21c.52 0 .94.41.94.92 0 .5-.42.92-.94.92a.93.93 0 0 1-.94-.92c0-.5.42-.92.94-.92zm5.96 3.73c.52 0 .94.42.94.92 0 .51-.42.92-.94.92a.93.93 0 0 1-.94-.92c0-.5.42-.92.94-.92zm7.27 2.37l-.5.28c-.55.3-.84.9-.73 1.5l.1.56c.17.85-.47 1.64-1.35 1.7l-.57.02c-.63.03-1.16.46-1.33 1.05l-.15.55a1.47 1.47 0 0 1-1.97.95l-.53-.22a1.48 1.48 0 0 0-1.66.38l-.38.43c-.57.65-1.6.65-2.19.01l-.38-.41a1.48 1.48 0 0 0-1.67-.37l-.53.23a1.47 1.47 0 0 1-1.98-.92l-.16-.54c-.17-.6-.72-1-1.34-1.03l-.58-.03a1.44 1.44 0 0 1-1.38-1.66l.1-.56c.1-.6-.2-1.21-.75-1.5l-.5-.27a1.42 1.42 0 0 1-.51-2.09l.33-.46c.36-.5.35-1.17-.02-1.67l-.34-.45c-.52-.7-.3-1.68.47-2.1l.5-.28c.55-.3.85-.9.73-1.5l-.1-.56a1.44 1.44 0 0 1 1.35-1.7l.57-.02a1.45 1.45 0 0 0 1.33-1.05l.15-.55a1.47 1.47 0 0 1 1.97-.94l.53.21c.58.24 1.25.08 1.66-.38l.38-.43c.58-.65 1.6-.65 2.19-.01l.38.42c.42.46 1.1.6 1.67.36l.53-.22c.8-.35 1.74.08 1.98.91l.16.54c.18.6.72 1 1.34 1.03l.58.03c.88.03 1.53.82 1.38 1.66l-.1.56c-.1.6.2 1.21.75 1.5l.5.27c.79.4 1.02 1.38.52 2.09l-.34.46c-.36.5-.35 1.17.02 1.67l.34.46c.52.7.3 1.68-.47 2.1zM466 185.35c1.25 0 2.26-1 2.26-2.22a2.24 2.24 0 0 0-2.26-2.22c-1.25 0-2.26 1-2.26 2.22a2.24 2.24 0 0 0 2.26 2.22zm6.38-3.5a.53.53 0 0 0-.07-.77.56.56 0 0 0-.78.07l-5.94 7.01c-.2.23-.16.58.07.76.24.2.59.16.78-.07zm1.85 5.01a2.24 2.24 0 0 0-2.26-2.21c-1.25 0-2.27.99-2.27 2.21a2.24 2.24 0 0 0 2.27 2.22c1.25 0 2.26-.99 2.26-2.22z" transform="translate(-457 -173)"/></svg>