<svg xmlns="http://www.w3.org/2000/svg" width="21" height="21" viewBox="0 0 21 21"><defs><filter id="a" width="200%" height="200%" x="-50%" y="-50%"><feGaussianBlur in="SourceGraphic" result="SvgjsFeGaussianBlur1032Out" stdDeviation="3.5"/></filter><mask id="b"><path fill="#fff" d="M911.54 396.06a1.5 1.5 0 0 0-.83-2.55l-5.09-.74a.66.66 0 0 1-.5-.36l-2.27-4.58a1.5 1.5 0 0 0-1.35-.83c-.58 0-1.1.32-1.35.83l-2.27 4.58c-.1.2-.29.33-.5.36l-5.08.74a1.5 1.5 0 0 0-.84 2.55l3.68 3.56c.15.16.23.38.19.59l-.87 5.03c-.07.44.04.88.33 1.22.45.53 1.23.69 1.86.36l4.54-2.38c.19-.1.43-.1.62 0l4.54 2.38a1.5 1.5 0 0 0 1.86-.37c.29-.33.4-.77.33-1.2l-.87-5.04a.66.66 0 0 1 .19-.59z"/></mask></defs><path fill="#00c7d3" d="M20.54 10.06a1.5 1.5 0 0 0-.83-2.55l-5.09-.74a.66.66 0 0 1-.5-.36l-2.27-4.58A1.5 1.5 0 0 0 10.5 1c-.58 0-1.1.32-1.35.83L6.88 6.41c-.1.2-.29.33-.5.36l-5.08.74a1.5 1.5 0 0 0-.84 2.55l3.68 3.56c.15.16.23.38.19.59l-.87 5.03c-.07.44.04.88.33 1.22.45.53 1.23.69 1.86.36l4.54-2.38c.19-.1.43-.1.62 0l4.54 2.38a1.5 1.5 0 0 0 1.86-.37c.29-.33.4-.77.33-1.2l-.87-5.04a.66.66 0 0 1 .19-.59z"/><path fill-opacity=".35" d="M882 416.3v-39.6h39v39.6zm31.54-17.94a1.5 1.5 0 0 0-.83-2.55l-5.09-.74a.66.66 0 0 1-.5-.36l-2.27-4.58a1.5 1.5 0 0 0-1.35-.83c-.58 0-1.1.32-1.35.83l-2.27 4.58c-.1.2-.29.33-.5.36l-5.08.74a1.5 1.5 0 0 0-.84 2.55l3.68 3.56c.15.16.23.38.19.59l-.87 5.03c-.07.44.04.88.33 1.22.45.53 1.23.69 1.86.36l4.54-2.38c.19-.1.43-.1.62 0l4.54 2.38a1.5 1.5 0 0 0 1.86-.37c.29-.33.4-.77.33-1.2l-.87-5.04a.66.66 0 0 1 .19-.59z" filter="url(#a)" mask="url(&quot;#b&quot;)" transform="translate(-891 -386)"/></svg>