<svg xmlns="http://www.w3.org/2000/svg" width="18" height="18" viewBox="0 0 18 18"><defs><clipPath id="a"><path fill="#fff" d="M399 1288a9 9 0 1 1 0 18 9 9 0 0 1 0-18z"/></clipPath></defs><path fill="#c7c7c7" d="M9 0a9 9 0 1 1 0 18A9 9 0 0 1 9 0z"/><path fill="none" stroke="#b1b3b5" stroke-linecap="round" stroke-linejoin="round" stroke-miterlimit="50" stroke-width="2" d="M399 1288a9 9 0 1 1 0 18 9 9 0 0 1 0-18z" clip-path="url(&quot;#a&quot;)" transform="translate(-390 -1288)"/><path fill="#fff" d="M5 10V8h3V5h2v3h3v2h-3v3H8v-3z"/></svg>