<svg xmlns="http://www.w3.org/2000/svg" width="22" height="27" viewBox="0 0 22 27"><path fill="#00c7d3" d="M12.35 3.07v.03c0 .63-.51 1.14-1.15 1.14H6.16c-.63 0-1.14-.51-1.14-1.14v-.03c0-.63.51-1.14 1.14-1.14h.6c.32 0 .57-.26.57-.58v-.02C7.33.6 7.93 0 8.67 0h.03c.74 0 1.34.6 1.34 1.33v.02c0 .32.25.58.57.58h.59c.64 0 1.15.51 1.15 1.14zM9.26 1.35a.58.58 0 0 0-.58-.58.57.57 0 0 0-.57.58c0 .32.25.58.57.58.32 0 .58-.26.58-.58zm2 22.95H1.54C.69 24.3 0 23.6 0 22.76V4.24C0 3.4.69 2.7 1.16 2.7h3.13a1.92 1.92 0 0 0 1.87 2.31h5.04a1.92 1.92 0 0 0 1.88-2.31h2.36c1.24 0 1.93.7 1.93 1.54v11.6l-.39-.03c-.53 0-1.05.08-1.54.2V6.95H1.93v15.43h8.9c.04.68.19 1.33.43 1.93zM22 21.99a5.02 5.02 0 1 1-10.04-.01 5.02 5.02 0 0 1 10.04 0zm-1.8-2.12a.77.77 0 0 0-1.09.06l-2.6 2.92-1.36-1.08a.78.78 0 0 0-1.09.12.78.78 0 0 0 .12 1.08l1.93 1.55a.8.8 0 0 0 .49.17c.21 0 .42-.1.57-.26l3.09-3.48a.77.77 0 0 0-.06-1.08zm-6.69-6.37H3.47a.38.38 0 0 1-.38-.39v-.38c0-.22.17-.39.38-.39h10.04c.21 0 .38.18.38.39v.38c0 .22-.17.39-.38.39zm0-3.47H3.47a.38.38 0 0 1-.38-.39v-.38c0-.22.17-.39.38-.39h10.04c.21 0 .38.17.38.39v.38c0 .22-.17.39-.38.39zm-1.93 6.56H3.47a.38.38 0 0 1-.38-.39v-.39c0-.2.17-.38.38-.38h8.11c.21 0 .38.17.38.38v.39c0 .21-.17.39-.38.39zm-.39 3.08v-.38a.38.38 0 0 0-.38-.39H3.47a.38.38 0 0 0-.38.39v.38c0 .21.17.39.38.39h7.34c.21 0 .38-.18.38-.39z"/></svg>