<svg xmlns="http://www.w3.org/2000/svg" width="20" height="18" viewBox="0 0 20 18"><path fill="#c7c7c7" d="M17.94 1c-1.13 0-2.05.9-2.05 2.03v.62H14.7v-.62c0-1.12-.92-2.03-2.05-2.03-1.14 0-2.06.9-2.06 2.03v.62H9.41v-.62C9.4 1.91 8.49 1 7.35 1 6.22 1 5.3 1.9 5.3 3.03v.62H4.1v-.62C4.1 1.91 3.2 1 2.06 1 .92 1 0 1.9 0 3.03v12.92C0 17.07.92 18 2.05 18c1.14 0 2.06-.92 2.06-2.04v-.62H5.3v.62c0 1.12.92 2.04 2.05 2.04 1.14 0 2.06-.92 2.06-2.04v-.62h1.18v.62c0 1.12.92 2.04 2.06 2.04 1.13 0 2.05-.92 2.05-2.04v-.62h1.2v.62a2.04 2.04 0 1 0 4.1 0V3.03C20 1.91 19.08 1 17.94 1zM5.3 11.97H4.1V7.02h1.2zm5.3 0H9.4V7.02h1.2zm5.3 0h-1.2V7.02h1.2z"/></svg>