<svg xmlns="http://www.w3.org/2000/svg" width="17" height="17" viewBox="0 0 17 17"><path fill="#adb0b2" d="M8.5 0a8.5 8.5 0 1 0 6.04 14.48c.26-.27.23-.72-.04-.98l-1.34-1.32c.29-.4.33-.88.09-1.34a3.58 3.58 0 0 0-1.44-1.49c-.24-.14-.47-.2-.69-.2-.09 0-.18 0-.27.03-.29.07-.57.2-.85.41-.09.07-.2.1-.32.1a.78.78 0 0 1-.44-.14A10.6 10.6 0 0 1 7.1 7.41c-.12-.16-.22-.51-.04-.76.21-.28.35-.56.42-.85.07-.31.01-.63-.18-.96A3.6 3.6 0 0 0 5.81 3.4c-.2-.1-.41-.16-.61-.16-.35 0-.67.15-.94.44-.24.26-.46.53-.71.86-.22.3-.2.66-.19.97.03.4.18.87.45 1.43a10.8 10.8 0 0 0 2.02 2.78l1.1 1.1c.92.9 1.82 1.56 2.78 2.02.56.28 1.03.42 1.42.45h.01l.25.01c.2 0 .46-.02.7-.19l.88.87A7.09 7.09 0 1 1 8.5 1.42c3.9 0 7.08 3.18 7.08 7.08a.71.71 0 0 0 1.42 0A8.5 8.5 0 0 0 8.5 0z"/></svg>