<svg xmlns="http://www.w3.org/2000/svg" width="60" height="60" viewBox="0 0 60 60"><defs><clipPath id="a"><path fill="#fff" d="M1343 1398a30 30 0 1 1 0 60 30 30 0 0 1 0-60z"/></clipPath></defs><path fill="#fff" d="M27.25 39a2.2 2.2 0 0 1-1.55-.65c-.9-.9-.93-2.39-.08-3.33l5.03-5.54-5.02-5.5a2.42 2.42 0 0 1 .07-3.32c.89-.9 2.32-.87 3.18.07l6.51 7.12c.83.91.83 2.34 0 3.25l-6.51 7.16c-.44.49-1.03.74-1.63.74z"/><path fill="none" stroke="#fff" stroke-miterlimit="50" stroke-width="2" d="M1343 1398a30 30 0 1 1 0 60 30 30 0 0 1 0-60z" clip-path="url(&quot;#a&quot;)" transform="translate(-1313 -1398)"/></svg>