<svg xmlns="http://www.w3.org/2000/svg" width="13" height="13" viewBox="0 0 13 13"><path fill="#9b9d9e" d="M5.38 6.69a.26.26 0 0 0-.37 0l-2.7 2.7-1.18-1.17a.5.5 0 0 0-.37-.16.5.5 0 0 0-.36.16.5.5 0 0 0-.16.37v3.65c0 .14.06.26.16.36.1.1.22.16.36.16h3.65a.5.5 0 0 0 .37-.16.5.5 0 0 0 .16-.36.5.5 0 0 0-.16-.37L3.61 10.7 6.3 8a.26.26 0 0 0 0-.38zM12.6.39a.5.5 0 0 0-.36-.15H8.59a.5.5 0 0 0-.37.16.5.5 0 0 0-.16.36c0 .15.06.27.16.37L9.39 2.3 6.7 5a.26.26 0 0 0 0 .38l.93.93a.26.26 0 0 0 .37 0l2.7-2.7 1.18 1.17c.1.1.22.16.37.16a.5.5 0 0 0 .36-.16.5.5 0 0 0 .16-.37V.76A.5.5 0 0 0 12.6.4z"/></svg>