<svg xmlns="http://www.w3.org/2000/svg" width="20" height="19" viewBox="0 0 20 19"><path fill="#fff" d="M19.75 3.35A.99.99 0 0 0 19 3H5.36l-.19-1.16A.99.99 0 0 0 4.2 1H1.98a1 1 0 0 0-.99 1 1 1 0 0 0 .99 1h1.38L5.2 14.16l.04.13.06.15.11.18.1.11c.06.05.12.1.19.13.04.02.07.05.11.06a.9.9 0 0 0 .36.08h10.86a1 1 0 0 0 .98-1 1 1 0 0 0-.98-1H7.01l-.17-1h11.17c.5 0 .91-.37.98-.86l.99-7c.04-.29-.05-.58-.23-.8zM17.86 5l-.28 2h-3.51V5zm-4.78 0v2h-2.96V5zm0 3v2h-2.96V8zM9.13 5v2H6.17c-.05 0-.1.02-.14.03L5.69 5zM6.19 8h2.94v2H6.51zm7.88 2V8h3.37l-.28 2zm-7.9 7.5c0 .83.66 1.5 1.48 1.5s1.48-.67 1.48-1.5S8.47 16 7.65 16s-1.48.67-1.48 1.5zm8.88 0c0 .83.67 1.5 1.48 1.5.82 0 1.48-.67 1.48-1.5s-.66-1.5-1.48-1.5a1.5 1.5 0 0 0-1.48 1.5z"/></svg>