<svg xmlns="http://www.w3.org/2000/svg" width="19" height="20" viewBox="0 0 19 20"><defs><clipPath id="a"><path fill="#fff" d="M928.64 395.36c.65 0 1.24-.39 1.5-.98a6.9 6.9 0 0 1 10.54-2.76l-.9.14a.7.7 0 1 0-.18 1.32l5 2.22c.21.1.46.07.67-.05a.7.7 0 0 0 .32-.59l.03-5.41a.7.7 0 0 0-.5-.67.72.72 0 0 0-.8.28l-.7 1.02a10.22 10.22 0 0 0-7.12-2.88c-4.2 0-7.83 2.53-9.37 6.12-.21.5-.16 1.07.14 1.52.3.45.82.72 1.37.72zm17.09 4a1.64 1.64 0 0 0-2.87.26 6.9 6.9 0 0 1-10.54 2.76l.9-.14a.7.7 0 0 0 .6-.6.7.7 0 0 0-.41-.73l-5-2.2a.72.72 0 0 0-.68.04.7.7 0 0 0-.32.59l-.03 5.41c0 .3.2.58.5.67.3.1.63-.02.8-.28l.7-1.02a10.22 10.22 0 0 0 7.12 2.88c4.2 0 7.83-2.53 9.37-6.12.21-.5.16-1.07-.14-1.52z"/></clipPath></defs><path fill="#353a3e" d="M1.64 8.36c.65 0 1.24-.39 1.5-.98a6.9 6.9 0 0 1 10.54-2.76l-.9.14a.7.7 0 1 0-.18 1.32l5 2.22c.21.1.46.07.67-.05a.7.7 0 0 0 .32-.59l.03-5.41a.7.7 0 0 0-.5-.67.72.72 0 0 0-.8.28l-.7 1.02A10.22 10.22 0 0 0 9.5 0C5.3 0 1.67 2.53.13 6.12c-.21.5-.16 1.07.14 1.52.3.45.82.72 1.37.72zm17.09 4a1.64 1.64 0 0 0-2.87.26 6.9 6.9 0 0 1-10.54 2.76l.9-.14a.7.7 0 0 0 .6-.6.7.7 0 0 0-.41-.73l-5-2.2a.72.72 0 0 0-.68.04.7.7 0 0 0-.32.59l-.03 5.41c0 .3.2.58.5.67.3.1.63-.02.8-.28l.7-1.02A10.22 10.22 0 0 0 9.5 20c4.2 0 7.83-2.53 9.37-6.12.21-.5.16-1.07-.14-1.52z"/><path fill="none" stroke="#adb0b2" stroke-linecap="round" stroke-linejoin="round" stroke-miterlimit="50" stroke-width="2" d="M928.64 395.36c.65 0 1.24-.39 1.5-.98a6.9 6.9 0 0 1 10.54-2.76l-.9.14a.7.7 0 1 0-.18 1.32l5 2.22c.21.1.46.07.67-.05a.7.7 0 0 0 .32-.59l.03-5.41a.7.7 0 0 0-.5-.67.72.72 0 0 0-.8.28l-.7 1.02a10.22 10.22 0 0 0-7.12-2.88c-4.2 0-7.83 2.53-9.37 6.12-.21.5-.16 1.07.14 1.52.3.45.82.72 1.37.72zm17.09 4a1.64 1.64 0 0 0-2.87.26 6.9 6.9 0 0 1-10.54 2.76l.9-.14a.7.7 0 0 0 .6-.6.7.7 0 0 0-.41-.73l-5-2.2a.72.72 0 0 0-.68.04.7.7 0 0 0-.32.59l-.03 5.41c0 .3.2.58.5.67.3.1.63-.02.8-.28l.7-1.02a10.22 10.22 0 0 0 7.12 2.88c4.2 0 7.83-2.53 9.37-6.12.21-.5.16-1.07-.14-1.52z" clip-path="url(&quot;#a&quot;)" transform="translate(-927 -387)"/></svg>