<svg xmlns="http://www.w3.org/2000/svg" width="21" height="21" viewBox="0 0 21 21"><defs><clipPath id="a"><path fill="#fff" d="M817.54 24.06a1.5 1.5 0 0 0-.84-2.55l-5.08-.74a.66.66 0 0 1-.5-.36l-2.27-4.58a1.5 1.5 0 0 0-1.35-.83c-.58 0-1.1.32-1.35.83l-2.27 4.58c-.1.2-.29.33-.5.36l-5.08.74a1.5 1.5 0 0 0-.84 2.55l3.68 3.56c.15.16.23.38.19.59l-.87 5.03c-.07.44.04.88.33 1.22.45.52 1.23.69 1.86.36l4.54-2.38c.19-.1.43-.1.62 0l4.54 2.38a1.5 1.5 0 0 0 1.86-.36c.29-.34.4-.78.33-1.22l-.87-5.03a.66.66 0 0 1 .19-.59z"/></clipPath></defs><path fill="#009ce6" d="M20.54 10.06a1.5 1.5 0 0 0-.84-2.55l-5.08-.74a.66.66 0 0 1-.5-.36l-2.27-4.58A1.5 1.5 0 0 0 10.5 1c-.58 0-1.1.32-1.35.83L6.88 6.41c-.1.2-.29.33-.5.36l-5.08.74a1.5 1.5 0 0 0-.84 2.55l3.68 3.56c.15.16.23.38.19.59l-.87 5.03c-.07.44.04.88.33 1.22.45.52 1.23.69 1.86.36l4.54-2.38c.19-.1.43-.1.62 0l4.54 2.38a1.5 1.5 0 0 0 1.86-.36c.29-.34.4-.78.33-1.22l-.87-5.03a.66.66 0 0 1 .19-.59z"/><path fill="none" stroke="#adb0b2" stroke-linecap="round" stroke-linejoin="round" stroke-miterlimit="50" stroke-width="2" d="M817.54 24.06a1.5 1.5 0 0 0-.84-2.55l-5.08-.74a.66.66 0 0 1-.5-.36l-2.27-4.58a1.5 1.5 0 0 0-1.35-.83c-.58 0-1.1.32-1.35.83l-2.27 4.58c-.1.2-.29.33-.5.36l-5.08.74a1.5 1.5 0 0 0-.84 2.55l3.68 3.56c.15.16.23.38.19.59l-.87 5.03c-.07.44.04.88.33 1.22.45.52 1.23.69 1.86.36l4.54-2.38c.19-.1.43-.1.62 0l4.54 2.38a1.5 1.5 0 0 0 1.86-.36c.29-.34.4-.78.33-1.22l-.87-5.03a.66.66 0 0 1 .19-.59z" clip-path="url(&quot;#a&quot;)" transform="translate(-797 -14)"/></svg>