<svg xmlns="http://www.w3.org/2000/svg" width="22" height="22" viewBox="0 0 22 22"><path fill="#c7c7c7" d="M16.06 13.63c-.34.56-.72 1.15-1.12 1.76 3.41.53 5.16 1.64 5.16 2.2 0 .74-3.1 2.47-9.1 2.47s-9.1-1.73-9.1-2.47c0-.56 1.75-1.67 5.16-2.2-.4-.6-.78-1.2-1.12-1.76C2.57 14.28 0 15.6 0 17.59 0 20.49 5.53 22 11 22s11-1.52 11-4.41c0-1.98-2.57-3.31-5.94-3.96zM11 17.4c.5 0 .96-.24 1.25-.65 1.87-2.6 5.18-7.58 5.18-10.18A6.5 6.5 0 0 0 11 0a6.5 6.5 0 0 0-6.43 6.57c0 2.6 3.3 7.58 5.18 10.18.3.41.76.65 1.25.65zM8.32 6.44A2.7 2.7 0 0 1 11 3.7a2.7 2.7 0 0 1 2.68 2.73A2.7 2.7 0 0 1 11 9.17a2.7 2.7 0 0 1-2.68-2.73z"/></svg>