<svg xmlns="http://www.w3.org/2000/svg" width="23" height="317" viewBox="0 0 23 317"><path fill="#c7c7c7" d="M18.9 304.86H9.11v-.75H4.17v10.55H2.98V304.1H1V317h8.12v-9.23H21v-.78c0-1.17-.94-2.13-2.1-2.13zM15.4 299H4.47a3.5 3.5 0 0 0-3.47 3.5v.4h1.98v-1.06h1.19v1.06h4.95v-.96h6.28c.8 0 1.46-.65 1.46-1.47 0-.8-.66-1.47-1.46-1.47zM20 311v-2h-4v2zM11.68 253.43V248h-1.31v5.43a7.8 7.8 0 0 0-7.1 7.1h15.5a7.8 7.8 0 0 0-7.1-7.1zm3.61 5.26a5 5 0 0 0-3.85-2.44l.1-1.3a6.25 6.25 0 0 1 4.88 3.08zm-4.27 5.48c1.42 0 2.6-1 2.9-2.33h-5.8a2.98 2.98 0 0 0 2.9 2.33zM12 270v-5h-2v5zm-6.74-2.12l3.35-3.35-.93-.92-3.35 3.35zm11.53 0l.92-.92-3.35-3.35-.92.92zM15.15 203.56V203h-13v1.95H8.3v1.18H1.77A9.1 9.1 0 0 0 1 209.8v7.2h4.83v-3.67h1.95l-.3-2.84h3.72a3.94 3.94 0 0 0 3.9-3.32h1.12v-3.61zM11 209.3H9.5v-1.18H11zm0-1.97H9.5v-1.18H11zm0-1.97H9.5v-1.17H11zm8.29-.6a1.74 1.74 0 0 0-1.67-1.22h-.21v3.62h.21c.79 0 1.45-.52 1.67-1.22H21v-1.18zM4.04 150h14.92L21 162H2zM2 165v-2h19v2zm0 3v-2h19v2zM9 111v-3h5v3zm-6.39-.96c.85-.86 1.91-1.96 3.39-2.04l.12 3.37c-.68.06-1.2.25-1.51.57-.42.43-.44 1-.44 1L4 113v1H1l.4-1.02c-.01-.32.05-1.77 1.21-2.94zM1 117h3l-.12 6H1zm18-11h3l-.11.14c0 3.64-2.95 5.1-4.94 5.2h-.07L17 111v-2.4c.67-.1 2.1-.53 2.1-2.45zm-2.16 2.6l.16-.6v.6h-.16zM19 96h2.89l.11 7h-3zM0 116v-1h5v1zm18-11v-1h5v1zm-11 7v-5h1v5zm8 0v-5h1v5zM11 68v-3.02a7.9 7.9 0 0 1-2.34-.5l-1.98 3.44-.86-.5 1.93-3.36A6.93 6.93 0 0 1 4 58h15c0 2.6-1.5 4.85-3.75 6.06l1.93 3.36-.86.5-1.98-3.44a7.9 7.9 0 0 1-2.34.5V68zm.5-21a7.5 7.5 0 0 1 7.5 7.5H4a7.5 7.5 0 0 1 7.5-7.5zM4 57v-1h15v1zM18.94 1c-1.13 0-2.05.9-2.05 2.03v.62H15.7v-.62c0-1.12-.92-2.03-2.05-2.03-1.14 0-2.06.9-2.06 2.03v.62h-1.18v-.62C10.4 1.91 9.49 1 8.35 1 7.22 1 6.3 1.9 6.3 3.03v.62H5.1v-.62C5.1 1.91 4.2 1 3.06 1 1.92 1 1 1.9 1 3.03v12.92C1 17.07 1.92 18 3.05 18c1.14 0 2.06-.92 2.06-2.04v-.62H6.3v.62c0 1.12.92 2.04 2.05 2.04 1.14 0 2.06-.92 2.06-2.04v-.62h1.18v.62c0 1.12.92 2.04 2.06 2.04 1.13 0 2.05-.92 2.05-2.04v-.62h1.2v.62a2.04 2.04 0 1 0 4.1 0V3.03C21 1.91 20.08 1 18.94 1zM6.3 11.97H5.1V7.02h1.2zm5.3 0h-1.2V7.02h1.2zm5.3 0h-1.2V7.02h1.2z"/></svg>