<svg xmlns="http://www.w3.org/2000/svg" width="44" height="44" viewBox="0 0 44 44"><defs><clipPath id="a"><path fill="#fff" d="M571 5846a22 22 0 1 1 0 44 22 22 0 0 1 0-44z"/></clipPath></defs><path fill="#171e23" d="M22 0a22 22 0 1 1 0 44 22 22 0 0 1 0-44z"/><path fill="none" stroke="#b0b2b3" stroke-linecap="round" stroke-linejoin="round" stroke-miterlimit="50" stroke-width="2" d="M571 5846a22 22 0 1 1 0 44 22 22 0 0 1 0-44z" clip-path="url(&quot;#a&quot;)" transform="translate(-549 -5846)"/><path fill="#fff" d="M12 24v-4h20v4z"/><path fill="#fff" d="M19 32V12h5v20z"/></svg>