<svg xmlns="http://www.w3.org/2000/svg" width="21" height="22" viewBox="0 0 21 22"><defs><linearGradient id="a" x1="991" x2="970" y1="115" y2="94" gradientUnits="userSpaceOnUse"><stop offset="0" stop-color="#ff4e00"/><stop offset="1" stop-color="#f89d2a"/></linearGradient></defs><path fill="#adb0b2" d="M20.49 19l-4.57-4.56-.07-.06a8.63 8.63 0 1 0-2.47 2.47l.06.07L18 21.5A1.76 1.76 0 0 0 20.5 19zM8.63 15.27A5.64 5.64 0 1 1 8.63 4a5.64 5.64 0 0 1 0 11.28z"/><path fill="url(#a)" d="M990.49 112l-4.57-4.56-.07-.06a8.63 8.63 0 1 0-2.47 2.47l.06.07 4.56 4.57a1.76 1.76 0 0 0 2.49-2.49zm-11.86-3.73a5.64 5.64 0 1 1 0-11.28 5.64 5.64 0 0 1 0 11.28z" transform="translate(-970 -93)"/></svg>