<svg xmlns="http://www.w3.org/2000/svg" width="60" height="60" viewBox="0 0 60 60"><defs><clipPath id="a"><path fill="#fff" d="M58 1398a30 30 0 1 1 0 60 30 30 0 0 1 0-60z"/></clipPath></defs><path fill="#fff" d="M32.75 21c.56 0 1.11.22 1.55.65.9.9.93 2.39.08 3.33l-5.03 5.54 5.02 5.49c.86.94.83 2.43-.07 3.33-.9.9-2.32.87-3.18-.07l-6.5-7.12a2.44 2.44 0 0 1-.01-3.25l6.5-7.16a2.2 2.2 0 0 1 1.64-.74z"/><path fill="none" stroke="#fff" stroke-miterlimit="50" stroke-width="2" d="M58 1398a30 30 0 1 1 0 60 30 30 0 0 1 0-60z" clip-path="url(&quot;#a&quot;)" transform="translate(-28 -1398)"/></svg>