<svg xmlns="http://www.w3.org/2000/svg" width="55" height="46" viewBox="0 0 55 46"><path fill="#00c7d3" d="M54.74.24a.87.87 0 0 0-.91-.18L1.55 19.88a.84.84 0 1 0-.11 1.52l10.83 5.96 3.76 17.95a.83.83 0 0 0 .17.37c.14.16.32.28.54.31l.09.01h.05c.16 0 .32-.05.45-.13.05-.02.1-.06.13-.09a.5.5 0 0 0 .03-.03l8.16-7.99a.83.83 0 0 0 0-1.19.88.88 0 0 0-1.22.01l-6.4 6.27 1.38-11.58 19.56 10.49c.2.1.42.12.62.08l.06-.02a.83.83 0 0 0 .55-.53L54.95 1.13a.83.83 0 0 0-.21-.89zM3.87 20.81L46.6 4.6 13 25.83zm14.3 8.47a.81.81 0 0 0-.22.23l-.01.04a.75.75 0 0 0-.1.3l-1.2 10L14 27.21 43 8.87zm20.75 10.53l-18.7-10.02 32.03-26.3z"/></svg>