<svg xmlns="http://www.w3.org/2000/svg" width="68" height="79" viewBox="0 0 68 79"><path fill="#00c7d3" d="M65.6 13.99c-5.2 0-9.16-3-13.34-6.19C47.46 4.14 42 0 33.9 0c-8.1 0-13.54 4.14-18.34 7.8C11.38 10.98 7.43 14 2.23 14c-.92 0-1.67.74-1.67 1.64 0 19.22 2.43 32.02 7.86 41.5 5.4 9.4 13.44 15.26 24.66 21.65a1.68 1.68 0 0 0 1.67 0C45.96 72.38 54 66.53 59.4 57.12c5.44-9.47 7.86-22.27 7.86-41.49 0-.9-.74-1.64-1.66-1.64zM33.9 75.45C13.8 63.87 4.16 53.9 3.91 17.2c5.49-.55 9.65-3.72 13.7-6.8 4.59-3.5 9.34-7.1 16.3-7.1 6.96 0 11.72 3.6 16.31 7.1 4.04 3.08 8.2 6.25 13.7 6.8-.26 36.7-9.9 46.67-30 58.25zM14.21 18.8a1.68 1.68 0 0 0-2.25-.7l-.63.32a1.64 1.64 0 0 0-.76 2.2 1.67 1.67 0 0 0 2.23.76l.71-.36a1.64 1.64 0 0 0 .7-2.22zm44.03 12.9h.15c.85 0 1.58-.63 1.66-1.49l.05-.63c.08-.9-.6-1.7-1.52-1.78-.91-.08-1.72.6-1.8 1.5l-.05.61c-.09.91.59 1.71 1.5 1.8zM17.5 18.23c.34 0 .69-.1.98-.32.97-.68 1.9-1.39 2.82-2.07 4.25-3.2 7.93-5.96 12.61-5.96.92 0 1.67-.74 1.67-1.65 0-.91-.75-1.65-1.67-1.65-5.8 0-10.1 3.23-14.63 6.64-.9.67-1.82 1.36-2.75 2.03a1.63 1.63 0 0 0-.38 2.3c.33.44.84.68 1.36.68zm16.41 49.55c-4.27-2.6-9.42-6.08-13.28-10.58-.6-.7-1.65-.78-2.36-.2-.7.6-.78 1.63-.19 2.33 4.44 5.17 10.33 9.01 14.97 11.79l.02.01.13.06.08.04.11.04.1.03.1.02.1.02.16.01h.28l.1-.03.1-.02c.04 0 .07-.02.1-.03l.12-.04.08-.04.12-.06.03-.01c4.63-2.78 10.52-6.62 14.96-11.8 5.07-5.89 8.26-13.86 9.76-24.38.13-.9-.5-1.73-1.42-1.86-.91-.12-1.75.5-1.88 1.4-1.41 9.88-4.36 17.31-9 22.72-3.86 4.5-9.02 7.98-13.29 10.58zM44.68 20.6l-17.4 17.17-4.13-4.07a5.42 5.42 0 0 0-3.83-1.57c-1.45 0-2.81.56-3.84 1.57a5.3 5.3 0 0 0 0 7.56l7.98 7.87.07.07a.8.8 0 0 1 .03.03l.07.06.03.03.08.06.03.03.07.06.03.02.07.06.04.03.08.06.03.02.08.05.03.03.08.05.04.02.07.05.04.02.08.05.03.02.08.05.04.02.09.04.02.02.08.04a.9.9 0 0 0 .05.02l.08.04.04.02.04.01.09.04.08.04h.03l.08.04.04.01.09.04h.04l.04.02.09.03.08.03h.04l.09.03.03.01.1.02.03.01.09.02.03.01.1.02h.04l.05.02.08.01.09.01h.04l.09.02h.08l.08.02h.14l.04.01H27.16l.1.01h.33l.05-.01h.05l.09-.01.08-.01h.08l.1-.02h.03l.1-.02.07-.01.05-.01.05-.01.08-.02h.04l.09-.03h.04l.09-.03h.03l.09-.03a.5.5 0 0 0 .03-.01l.1-.03.07-.03h.05a.8.8 0 0 0 .04-.02l.09-.04.04-.01.08-.03.03-.01.08-.04.08-.03.05-.02.04-.02.08-.04a.5.5 0 0 0 .03-.02l.09-.04.07-.04.05-.02.03-.02.08-.05.04-.02.08-.05.04-.02.08-.05.02-.02.08-.05.04-.03.08-.05.04-.03.07-.05.03-.02.07-.06.06-.05.04-.03.05-.04.07-.06a.7.7 0 0 0 .02-.03l.07-.06.04-.03.06-.07a.91.91 0 0 0 .05-.04l21.2-20.93a5.3 5.3 0 0 0 0-7.56 5.42 5.42 0 0 0-3.83-1.56c-1.45 0-2.82.55-3.84 1.56zm5.3 5.24L28.75 46.78v.01l-.16.14-.2.14-.29.14-.19.07-.3.07-.15.02h-.26H27.1l-.15-.02h-.01l-.29-.07-.16-.05-.32-.16-.29-.22-8.04-7.93a2.04 2.04 0 0 1 1.48-3.5c.56 0 1.08.2 1.47.6l5.3 5.23a1.68 1.68 0 0 0 2.37 0l18.57-18.33c.4-.39.92-.6 1.48-.6.56 0 1.08.21 1.47.6.81.8.82 2.1 0 2.9z"/></svg>