<?xml version="1.0" standalone="no"?>
<!DOCTYPE svg PUBLIC "-//W3C//DTD SVG 1.1//EN" "http://www.w3.org/Graphics/SVG/1.1/DTD/svg11.dtd">
<svg xmlns="http://www.w3.org/2000/svg">
<metadata>Copyright (C) 2017 by original authors @ fontello.com</metadata>
<defs>
<font id="icons" horiz-adv-x="1000" >
<font-face font-family="icons" font-weight="400" font-stretch="normal" units-per-em="1000" ascent="850" descent="-150" />
<missing-glyph horiz-adv-x="1000" />
<glyph glyph-name="search" unicode="&#xe800;" d="M746 209l254-255-105-105-254 254q-106-72-232-72-169 0-289 120t-120 289 120 289 289 120 289-120 120-289q0-127-72-231z m-65 231q0 113-79 193t-193 80-193-80-80-193 80-192 193-80 193 80 79 192z" horiz-adv-x="1000" />

<glyph glyph-name="cart" unicode="&#xe801;" d="M202 48h41a133 133 0 0 1 117-198 133 133 0 0 1 117 198h166a132 132 0 0 1 117-198 133 133 0 0 1 116 198h45c20 0 36 16 36 35a35 35 0 0 1-36 36h-684v69h777c16 0 30 10 34 26l118 428a34 34 0 0 1-7 30 36 36 0 0 1-27 14h-895v128c0 13-5 23-15 30v6h-222v-56h167v-710c0-20 15-36 35-36z m512-20a63 63 0 0 0 90 0 62 62 0 0 0 0-89c-25-25-66-25-90 0a63 63 0 0 0 0 89z m-399 0a63 63 0 0 0 90 0 62 62 0 0 0 0-89c-24-25-66-25-90 0a63 63 0 0 0 0 89z m-78 589h848l-98-359h-750z" horiz-adv-x="1222" />

<glyph glyph-name="menu" unicode="&#xe802;" d="M0 759v91h1273v-91z m0-909v91h1273v-91z m364 455v91h909v-91z" horiz-adv-x="1273" />

<glyph glyph-name="close" unicode="&#xe803;" d="M988 762c14-14 14-38 0-53l-398-397 398-397a38 38 0 0 0-53-54l-398 399-398-399a38 38 0 0 0-54 54l400 397-399 397a38 38 0 1 0 53 53l398-397 398 397c14 16 38 16 53 0z" horiz-adv-x="1000" />

<glyph glyph-name="key" unicode="&#xe804;" d="M723 794a277 277 0 0 1-237-418l-422-422a33 33 0 1 1 47-46l58 59 108-108a32 32 0 0 1 45 0 33 33 0 0 1 0 47l-107 107 36 35 75-75a32 32 0 0 1 45 0 33 33 0 0 1 0 46l-74 75 35 35 107-107a33 33 0 0 1 46 46l-107 108 148 147a276 276 0 0 1 474 195 277 277 0 0 1-277 276z m0-488a212 212 0 1 0 0 424 212 212 0 0 0 0-424z" horiz-adv-x="1056" />

<glyph glyph-name="enter" unicode="&#xe805;" d="M313 663l-55-55 219-219h-477v-78h477l-219-219 55-54 312 312z m0 125h375a122 122 0 0 0 125-125v-625a122 122 0 0 0-125-126h-375v-62h375a182 182 0 0 1 187 188v625a182 182 0 0 1-187 187h-375v-62z" horiz-adv-x="875" />

<glyph glyph-name="tel" unicode="&#xe806;" d="M974 81l-135 135a99 99 0 0 1-139-2l-52-52a626 626 0 0 0-151 109 634 634 0 0 0-110 152l52 52c40 39 40 102 2 140l-134 136a99 99 0 0 1-138 0 293 293 0 0 1-91-167c-30-148 39-291 239-491 224-226 415-243 468-243l20 1c104 12 141 59 169 93 35 44 35 102 0 137z m-45-101c-26-32-50-62-131-71h-13c-47 0-219 15-426 224-185 186-250 313-225 439 20 92 70 132 71 133l2 1 2 2a44 44 0 0 0 30 13c10 0 20-5 27-12l135-134c15-16 14-42-2-59l-59-59-1-1a48 48 0 0 1-5-55c24-45 57-105 122-170 65-65 125-98 169-123 4-2 14-7 25-7 14 0 26 6 35 17l56 56a43 43 0 0 0 30 12c10 0 20-4 28-11l133-134c17-17 10-44-3-61z" horiz-adv-x="1000" />

<glyph glyph-name="send" unicode="&#xe807;" d="M1088 798a22 22 0 0 1-23 3l-992-431a41 41 0 0 1-25-41c1-19 12-34 29-40l290-95v-259c0-24 15-44 38-51 23-7 48 2 62 21l122 175 257-221c8-6 17-9 29-9 5 0 9 1 14 2a41 41 0 0 1 28 32l178 892a27 27 0 0 1-7 21z m-521-674l-136-195c-5-6-10-5-13-4-2 0-8 3-8 10v274c0 9-5 17-15 20l-305 101 882 383-435-355a21 21 0 0 1 14-37c4 0 9 0 14 5l376 307z m307-231l-261 222 418 565z m-395 418l-35-29a21 21 0 0 1-3-29c4-6 10-8 17-8 4 0 10 1 14 5l35 28c9 7 11 21 3 30s-22 9-31 3z" horiz-adv-x="1095" />

<glyph glyph-name="ok" unicode="&#xe808;" d="M875 588l-535-600-340 338 123 124 196-195 420 457z" horiz-adv-x="875" />

<glyph glyph-name="arrow-right" unicode="&#xe809;" d="M609 798l472-471-472-471-59 58 353 353h-903v83h939l-389 389z" horiz-adv-x="1083" />

<glyph glyph-name="quotes" unicode="&#xe80a;" d="M243 389v-85h210v-454h-453v539c0 171 49 298 146 378a385 385 0 0 0 253 83v-243c-55 0-156 0-156-218z m748 218v243c-100 0-185-28-252-83-97-80-146-207-146-378v-539h453v454h-211v85c0 218 102 218 156 218z" horiz-adv-x="1045" />

<glyph glyph-name="date" unicode="&#xe80b;" d="M77 773h154v39a39 39 0 0 0 77 0v-39h154v39a39 39 0 0 0 77 0v-39h153v39a39 39 0 0 0 77 0v-39h154a77 77 0 0 0 77-77v-769a77 77 0 0 0-77-77h-846a77 77 0 0 0-77 77v769a77 77 0 0 0 77 77z m0-769a77 77 0 0 1 77-77h692a77 77 0 0 1 77 77v615a77 77 0 0 1-77 77h-77v-38a39 39 0 0 0-77 0v38h-153v-38a39 39 0 0 0-77 0v38h-154v-38a39 39 0 0 0-77 0v38h-77a77 77 0 0 1-77-77z m192 461a39 39 0 1 0 0-76 39 39 0 0 0 0 76z m231 0a39 39 0 1 0 0-76 39 39 0 0 0 0 76z m231 0a39 39 0 1 0 0-76 39 39 0 0 0 0 76z m-462-153a39 39 0 1 0 0-77 39 39 0 0 0 0 77z m231 0a39 39 0 1 0 0-77 39 39 0 0 0 0 77z m231 0a39 39 0 1 0 0-77 39 39 0 0 0 0 77z m-462-154a39 39 0 1 0 0-77 39 39 0 0 0 0 77z m231 0a39 39 0 1 0 0-77 39 39 0 0 0 0 77z m231 0a39 39 0 1 0 0-77 39 39 0 0 0 0 77z" horiz-adv-x="1000" />

<glyph glyph-name="arrow-down" unicode="&#xe80c;" d="M467-77l408 437-29 32-388-416v874h-41v-874l-388 416-29-32 438-468z m-29 31l-20 21h39z" horiz-adv-x="875" />

<glyph glyph-name="arrow-up" unicode="&#xe80d;" d="M408 777l-408-437 29-32 388 416v-874h41v874l388-416 29 32-437 468z m30-31l19-21h-39z" horiz-adv-x="875" />

<glyph glyph-name="ok-thin" unicode="&#xe80e;" d="M1403 700l-837-837a42 42 0 0 0-58 0l-2 1-414 414a43 43 0 0 0 0 60c16 16 43 16 59 0l387-386 807 806c17 17 43 17 58 0 17-16 17-41 0-58z" horiz-adv-x="1417" />

<glyph glyph-name="spin" unicode="&#xe80f;" d="M636 850a500 500 0 1 0-343-864h71a455 455 0 1 1-155 208l121 108c4 4 11 4 15 0l14-14c5-3 5-9 0-13l-133-119c5-12 10-23 17-33h-52l-1 2a23 23 0 0 0-24 4l-163 146a9 9 0 0 0 0 13l15 14c4 4 11 4 15 0l132-118a500 500 0 0 0 471 666z" horiz-adv-x="1136" />

<glyph glyph-name="load" unicode="&#xe810;" d="M800 450l-70 70-280-280v610h-100v-610l-280 280-70-70 400-400z m0-600v100h-800v-100z" horiz-adv-x="800" />

<glyph glyph-name="clock" unicode="&#xe811;" d="M500 850a500 500 0 1 1 2-1002 500 500 0 0 1-2 1002z m0-919a419 419 0 1 0 1 839 419 419 0 0 0-1-839z m259 548c7-12 5-29-8-37l-240-167a27 27 0 0 0-28-2 27 27 0 0 0-14 23v359a27 27 0 0 0 54 0v-306l199 137c12 8 29 6 37-7z" horiz-adv-x="1000" />

<glyph glyph-name="angle-left" unicode="&#xf104;" d="M350 546q0-7-6-12l-219-220 219-219q6-6 6-13t-6-13l-28-28q-5-5-12-5t-13 5l-260 261q-6 5-6 12t6 13l260 260q5 6 13 6t12-6l28-28q6-5 6-13z" horiz-adv-x="357.1" />

<glyph glyph-name="angle-right" unicode="&#xf105;" d="M332 314q0-7-5-12l-261-261q-5-5-12-5t-13 5l-28 28q-6 6-6 13t6 13l219 219-219 220q-6 5-6 12t6 13l28 28q5 6 13 6t12-6l261-260q5-5 5-13z" horiz-adv-x="357.1" />

<glyph glyph-name="angle-up" unicode="&#xf106;" d="M600 189q0-7-6-12l-28-28q-5-6-12-6t-13 6l-220 219-219-219q-5-6-13-6t-12 6l-28 28q-6 5-6 12t6 13l260 260q5 6 12 6t13-6l260-260q6-5 6-13z" horiz-adv-x="642.9" />

<glyph glyph-name="angle-down" unicode="&#xf107;" d="M600 439q0-7-6-12l-260-261q-5-5-13-5t-12 5l-260 261q-6 5-6 12t6 13l28 28q5 6 12 6t13-6l219-219 220 219q5 6 13 6t12-6l28-28q6-5 6-13z" horiz-adv-x="642.9" />
</font>
</defs>
</svg>
