<svg xmlns="http://www.w3.org/2000/svg" width="68" height="79" viewBox="0 0 68 79"><path fill="#00c7d3" d="M66.3 60.67a19.7 19.7 0 0 1-7.9-5.27 32.4 32.4 0 0 0 9-22.48C67.4 14.77 52.43 0 34.05 0 15.67 0 .72 14.77.72 32.92c0 18.15 14.95 32.91 33.34 32.91 4.28 0 8.44-.79 12.38-2.34a23.48 23.48 0 0 0 19.99.22 1.64 1.64 0 0 0-.13-3.04zm-9.63 1.87c-3.27 0-6.5-.8-9.37-2.32a1.68 1.68 0 0 0-1.44-.06 30.13 30.13 0 0 1-11.8 2.38c-16.55 0-30-13.29-30-29.62 0-16.34 13.45-29.63 30-29.63 16.54 0 30 13.3 30 29.63 0 8.06-3.22 15.6-9.07 21.22-.61.59-.68 1.53-.16 2.2a23.36 23.36 0 0 0 6.53 5.65 20.1 20.1 0 0 1-4.69.55zM34.05 48.27c.43 0 .86-.16 1.18-.48L46.3 36.87l.01-.02a9.25 9.25 0 0 0 0-13.25 9.5 9.5 0 0 0-6.72-2.75 9.5 9.5 0 0 0-5.53 1.76 9.5 9.5 0 0 0-5.54-1.76 9.5 9.5 0 0 0-6.72 2.75 9.25 9.25 0 0 0 0 13.25l.01.02 11.07 10.92c.32.32.75.48 1.17.48zm-9.89-13.74a6 6 0 0 1 0-8.6 6.17 6.17 0 0 1 4.36-1.79c1.64 0 3.2.64 4.36 1.78a1.68 1.68 0 0 0 2.35 0 6.16 6.16 0 0 1 4.36-1.78 6.16 6.16 0 0 1 6.16 6.09 6 6 0 0 1-1.81 4.31l-9.89 9.76-9.88-9.76h-.01zm34.5 3.1c-.9-.23-1.8.3-2.04 1.18a23.3 23.3 0 0 1-22.56 17.15c-.93 0-1.67.74-1.67 1.65 0 .9.74 1.64 1.67 1.64 12.1 0 22.7-8.06 25.79-19.6.23-.88-.3-1.78-1.2-2.02zm.3-2h.08c.89 0 1.62-.7 1.66-1.58l.03-1.13c0-.91-.75-1.65-1.67-1.65-.92 0-1.67.74-1.67 1.65 0 .32 0 .66-.02.99-.04.9.68 1.67 1.6 1.71zM35.73 8.22c0-.91-.74-1.65-1.67-1.65a26.63 26.63 0 0 0-25.79 19.6 1.64 1.64 0 0 0 1.62 2.07c.73 0 1.41-.48 1.6-1.22A23.3 23.3 0 0 1 34.06 9.87c.92 0 1.67-.73 1.67-1.64zM9.14 30.2c-.91-.04-1.7.67-1.73 1.58-.02.37-.03.75-.03 1.13 0 .9.75 1.64 1.67 1.64.92 0 1.67-.74 1.67-1.64 0-.33 0-.67.02-1 .04-.9-.68-1.67-1.6-1.7zm41.58 45.5H17.4c-.92 0-1.67.73-1.67 1.64 0 .91.75 1.65 1.67 1.65h33.33c.92 0 1.67-.74 1.67-1.65 0-.9-.74-1.64-1.67-1.64z"/></svg>